<?xml version="1.0" encoding="utf-8"?>
<!-- Generator: Adobe Illustrator 16.0.0, SVG Export Plug-In . SVG Version: 6.00 Build 0)  -->
<!DOCTYPE svg PUBLIC "-//W3C//DTD SVG 1.1//EN" "http://www.w3.org/Graphics/SVG/1.1/DTD/svg11.dtd">
<svg version="1.1" id="Layer_2" xmlns="http://www.w3.org/2000/svg" xmlns:xlink="http://www.w3.org/1999/xlink" x="0px" y="0px"
	 width="259.091px" height="193.182px" viewBox="0 0 259.091 193.182" enable-background="new 0 0 259.091 193.182"
	 xml:space="preserve">
<path fill="#AAAAAA" d="M163.938,16.254H94.648c-26.135,0-47.319,21.185-47.319,47.319v69.297c0,26.127,21.185,47.312,47.319,47.312
	h69.289c26.135,0,47.319-21.185,47.319-47.312V63.574C211.257,37.439,190.072,16.254,163.938,16.254 M196.161,134.09
	c0,17.338-14.062,31.404-31.411,31.404H93.836c-17.349,0-31.412-14.066-31.412-31.404V63.169c0-17.345,14.063-31.411,31.412-31.411
	h70.914c17.35,0,31.411,14.066,31.411,31.411V134.09z"/>
<path fill="#AAAAAA" d="M129.293,56.09c-23.492,0-42.536,19.047-42.536,42.532c0,23.5,19.044,42.54,42.536,42.54
	s42.536-19.04,42.536-42.54C171.829,75.137,152.785,56.09,129.293,56.09 M129.293,126.203c-15.228,0-27.572-12.349-27.572-27.58
	c0-15.224,12.345-27.565,27.572-27.565c15.229,0,27.572,12.341,27.572,27.565C156.865,113.854,144.521,126.203,129.293,126.203"/>
<path fill="#AAAAAA" d="M173.248,44.565c-5.476,0-9.909,4.438-9.909,9.909s4.434,9.909,9.909,9.909c5.475,0,9.904-4.438,9.904-9.909
	S178.723,44.565,173.248,44.565"/>
</svg>
