<svg  viewBox="0 0 373 46" fill="none" xmlns="http://www.w3.org/2000/svg" xmlns:xlink="http://www.w3.org/1999/xlink">
<rect x="315" width="58" height="46" fill="url(#pattern0)"/>
<path d="M20.0859 33.3403C20.0859 36.6802 19.1582 39.3892 17.3027 41.4673C15.4473 43.5269 13.0908 44.5566 10.2334 44.5566C6.98633 44.5566 4.37939 44.0835 2.4126 43.1372V40.187C3.37744 40.7251 4.57422 41.1519 6.00293 41.4673C7.43164 41.7827 8.8418 41.9404 10.2334 41.9404C12.3115 41.9404 14.0186 41.1519 15.3545 39.5747C16.6904 37.9976 17.3584 35.9937 17.3584 33.563C17.3584 31.3179 16.8853 29.5366 15.939 28.2192C14.9927 26.9019 13.1836 25.5845 10.5117 24.2671C8.41504 23.2095 6.84717 22.189 5.80811 21.2056C4.76904 20.2036 3.99902 19.0439 3.49805 17.7266C2.99707 16.4092 2.74658 14.832 2.74658 12.9951C2.74658 10.9912 3.15479 9.20996 3.97119 7.65137C4.7876 6.09277 5.92871 4.88672 7.39453 4.0332C8.86035 3.16113 10.4653 2.7251 12.2095 2.7251C13.7866 2.7251 15.2153 2.90137 16.4956 3.25391C17.7944 3.60645 18.8149 3.98682 19.5571 4.39502L18.4995 7.01123C16.4399 5.95361 14.3433 5.4248 12.2095 5.4248C10.2056 5.4248 8.57275 6.11133 7.31104 7.48438C6.06787 8.83887 5.44629 10.6387 5.44629 12.8838C5.44629 15.166 5.90088 16.938 6.81006 18.1997C7.71924 19.4614 9.50049 20.7695 12.1538 22.124C14.8999 23.46 16.9038 25.0278 18.1655 26.8276C19.4458 28.6089 20.0859 30.7798 20.0859 33.3403ZM34.7793 44H32.0518V5.92578H23.9526V3.30957H42.8784V5.92578H34.7793V44ZM68.4263 3.30957V30.7798C68.4263 39.9644 65.1421 44.5566 58.5737 44.5566C55.2896 44.5566 52.7847 43.3691 51.0591 40.9941C49.3335 38.6191 48.4707 35.2144 48.4707 30.7798V3.30957H51.2261V31.1138C51.2261 34.6392 51.8569 37.3296 53.1187 39.1851C54.3989 41.022 56.2173 41.9404 58.5737 41.9404C60.9116 41.9404 62.6836 41.022 63.8896 39.1851C65.0957 37.3296 65.6987 34.6021 65.6987 31.0024V3.30957H68.4263ZM98.1768 23.2651C98.1768 37.0884 93.8628 44 85.2349 44H77.9985V3.30957H85.4019C89.5952 3.30957 92.7681 5.00732 94.9204 8.40283C97.0913 11.7798 98.1768 16.7339 98.1768 23.2651ZM95.3101 23.4321C95.3101 17.6987 94.4658 13.3291 92.7773 10.3232C91.0889 7.31738 88.5933 5.81445 85.2905 5.81445H80.7261V41.4951H85.0679C88.5933 41.4951 91.1816 39.9551 92.833 36.875C94.4844 33.7949 95.3101 29.314 95.3101 23.4321ZM106.719 44V3.30957H109.447V44H106.719ZM141.452 23.5991C141.452 30.3345 140.44 35.5112 138.418 39.1294C136.414 42.7476 133.51 44.5566 129.707 44.5566C125.866 44.5566 122.953 42.7383 120.967 39.1016C118.982 35.4463 117.989 30.2603 117.989 23.5435C117.989 16.5298 118.973 11.3066 120.939 7.87402C122.906 4.44141 125.856 2.7251 129.79 2.7251C133.575 2.7251 136.46 4.53418 138.446 8.15234C140.45 11.752 141.452 16.9009 141.452 23.5991ZM120.828 23.5991C120.828 29.6479 121.58 34.2217 123.083 37.3203C124.604 40.4004 126.812 41.9404 129.707 41.9404C132.62 41.9404 134.828 40.4097 136.331 37.3481C137.852 34.2866 138.613 29.7036 138.613 23.5991C138.613 17.5688 137.871 13.0229 136.386 9.96143C134.902 6.88135 132.703 5.34131 129.79 5.34131C126.803 5.34131 124.558 6.8999 123.055 10.0171C121.57 13.1157 120.828 17.6431 120.828 23.5991ZM168.781 44H146.766V38.7119L159.763 9.90576H147.155V3.30957H168.363V8.59766L155.366 37.376H168.781V44ZM175.959 44V3.30957H183.084V44H175.959ZM221.185 44H211.944L199.364 14.5259H199.002C199.466 16.771 199.698 19.1831 199.698 21.7622V44H192.685V3.30957H201.98L214.449 32.4775H214.755C214.403 30.5293 214.227 28.21 214.227 25.5195V3.30957H221.185V44ZM248.987 44H226.972V38.7119L239.969 9.90576H227.361V3.30957H248.569V8.59766L235.572 37.376H248.987V44ZM256.166 44V3.30957H263.291V44H256.166ZM301.391 44H292.15L279.57 14.5259H279.208C279.672 16.771 279.904 19.1831 279.904 21.7622V44H272.891V3.30957H282.187L294.655 32.4775H294.961C294.609 30.5293 294.433 28.21 294.433 25.5195V3.30957H301.391V44Z" fill="black"/>
</svg>
