<?xml version="1.0" encoding="utf-8"?>
<!-- Generator: Adobe Illustrator 16.0.0, SVG Export Plug-In . SVG Version: 6.00 Build 0)  -->
<!DOCTYPE svg PUBLIC "-//W3C//DTD SVG 1.1//EN" "http://www.w3.org/Graphics/SVG/1.1/DTD/svg11.dtd">
<svg version="1.1" id="Layer_2" xmlns="http://www.w3.org/2000/svg" xmlns:xlink="http://www.w3.org/1999/xlink" x="0px" y="0px"
	 width="259.091px" height="193.182px" viewBox="0 0 259.091 193.182" enable-background="new 0 0 259.091 193.182"
	 xml:space="preserve">
<path fill="#AAAAAA" d="M205.194,26.376c-7.931-1.178-46.15-2.682-76.492-2.682c-30.347,0-68.557,1.504-76.492,2.682
	c-13.819,2.22-21.346,8.421-25.335,24.442c-1.354,5.346-3.201,34.866-3.201,46.101v2.488c0,11.249,1.848,40.745,3.201,46.129
	c3.989,16.007,11.516,22.19,25.335,24.405c7.936,1.187,46.193,2.667,76.571,2.667l-0.142,0.025c30.373,0,68.594-1.505,76.555-2.692
	c13.819-2.215,21.325-8.397,25.346-24.405c1.344-5.385,3.19-34.881,3.19-46.129v-2.488c0-11.235-1.847-40.755-3.19-46.101
	C226.52,34.759,219.014,28.597,205.194,26.376"/>
<polygon fill="#FFFFFF" points="103.52,71.241 153.874,97.531 103.52,125.087 "/>
</svg>
